<svg width="140" height="96" viewBox="0 0 140 96" fill="none" xmlns="http://www.w3.org/2000/svg">
<path d="M0.155875 36V2.4H14.6999C17.7079 2.4 20.2999 2.896 22.4759 3.888C24.6519 4.848 26.3319 6.24 27.5159 8.064C28.6999 9.888 29.2919 12.064 29.2919 14.592C29.2919 17.088 28.6999 19.248 27.5159 21.072C26.3319 22.896 24.6519 24.304 22.4759 25.296C20.2999 26.256 17.7079 26.736 14.6999 26.736H4.47588L7.93188 23.232V36H0.155875ZM7.93188 24.096L4.47588 20.4H14.2679C16.6679 20.4 18.4599 19.888 19.6439 18.864C20.8279 17.84 21.4199 16.416 21.4199 14.592C21.4199 12.736 20.8279 11.296 19.6439 10.272C18.4599 9.248 16.6679 8.736 14.2679 8.736H4.47588L7.93188 5.04V24.096ZM46.5565 36.384C43.8045 36.384 41.3565 35.808 39.2125 34.656C37.1005 33.504 35.4205 31.936 34.1725 29.952C32.9565 27.936 32.3485 25.648 32.3485 23.088C32.3485 20.496 32.9565 18.208 34.1725 16.224C35.4205 14.208 37.1005 12.64 39.2125 11.52C41.3565 10.368 43.8045 9.792 46.5565 9.792C49.2765 9.792 51.7085 10.368 53.8525 11.52C55.9965 12.64 57.6765 14.192 58.8925 16.176C60.1085 18.16 60.7165 20.464 60.7165 23.088C60.7165 25.648 60.1085 27.936 58.8925 29.952C57.6765 31.936 55.9965 33.504 53.8525 34.656C51.7085 35.808 49.2765 36.384 46.5565 36.384ZM46.5565 30.24C47.8045 30.24 48.9245 29.952 49.9165 29.376C50.9085 28.8 51.6925 27.984 52.2685 26.928C52.8445 25.84 53.1325 24.56 53.1325 23.088C53.1325 21.584 52.8445 20.304 52.2685 19.248C51.6925 18.192 50.9085 17.376 49.9165 16.8C48.9245 16.224 47.8045 15.936 46.5565 15.936C45.3085 15.936 44.1885 16.224 43.1965 16.8C42.2045 17.376 41.4045 18.192 40.7965 19.248C40.2205 20.304 39.9325 21.584 39.9325 23.088C39.9325 24.56 40.2205 25.84 40.7965 26.928C41.4045 27.984 42.2045 28.8 43.1965 29.376C44.1885 29.952 45.3085 30.24 46.5565 30.24ZM76.2816 36.384C73.2416 36.384 70.8736 35.616 69.1776 34.08C67.4816 32.512 66.6336 30.192 66.6336 27.12V4.464H74.1216V27.024C74.1216 28.112 74.4096 28.96 74.9856 29.568C75.5616 30.144 76.3456 30.432 77.3376 30.432C78.5216 30.432 79.5296 30.112 80.3616 29.472L82.3776 34.752C81.6096 35.296 80.6816 35.712 79.5936 36C78.5376 36.256 77.4336 36.384 76.2816 36.384ZM62.6496 15.936V10.176H80.5536V15.936H62.6496ZM112.463 36.384C109.711 36.384 107.263 35.808 105.119 34.656C103.007 33.504 101.327 31.936 100.079 29.952C98.8628 27.936 98.2548 25.648 98.2548 23.088C98.2548 20.496 98.8628 18.208 100.079 16.224C101.327 14.208 103.007 12.64 105.119 11.52C107.263 10.368 109.711 9.792 112.463 9.792C115.183 9.792 117.615 10.368 119.759 11.52C121.903 12.64 123.583 14.192 124.799 16.176C126.015 18.16 126.623 20.464 126.623 23.088C126.623 25.648 126.015 27.936 124.799 29.952C123.583 31.936 121.903 33.504 119.759 34.656C117.615 35.808 115.183 36.384 112.463 36.384ZM112.463 30.24C113.711 30.24 114.831 29.952 115.823 29.376C116.815 28.8 117.599 27.984 118.175 26.928C118.751 25.84 119.039 24.56 119.039 23.088C119.039 21.584 118.751 20.304 118.175 19.248C117.599 18.192 116.815 17.376 115.823 16.8C114.831 16.224 113.711 15.936 112.463 15.936C111.215 15.936 110.095 16.224 109.103 16.8C108.111 17.376 107.311 18.192 106.703 19.248C106.127 20.304 105.839 21.584 105.839 23.088C105.839 24.56 106.127 25.84 106.703 26.928C107.311 27.984 108.111 28.8 109.103 29.376C110.095 29.952 111.215 30.24 112.463 30.24ZM130.426 16.32L133.594 4.8L134.65 9.168C133.274 9.168 132.138 8.768 131.242 7.968C130.378 7.136 129.946 6.016 129.946 4.608C129.946 3.232 130.394 2.128 131.29 1.296C132.186 0.431997 133.29 -2.86102e-06 134.602 -2.86102e-06C135.946 -2.86102e-06 137.05 0.431997 137.914 1.296C138.778 2.128 139.21 3.232 139.21 4.608C139.21 5.024 139.178 5.44 139.114 5.856C139.082 6.24 138.97 6.704 138.778 7.248C138.618 7.792 138.346 8.512 137.962 9.408L135.178 16.32H130.426ZM30.6299 95.576C27.9739 95.576 25.5259 95.16 23.2859 94.328C21.0779 93.464 19.1419 92.248 17.4779 90.68C15.8459 89.112 14.5659 87.272 13.6379 85.16C12.7419 83.048 12.2939 80.728 12.2939 78.2C12.2939 75.672 12.7419 73.352 13.6379 71.24C14.5659 69.128 15.8619 67.288 17.5259 65.72C19.1899 64.152 21.1419 62.952 23.3819 62.12C25.6219 61.256 28.0859 60.824 30.7739 60.824C33.7499 60.824 36.4219 61.32 38.7899 62.312C41.1899 63.304 43.2059 64.744 44.8379 66.632L39.8459 71.24C38.6299 69.96 37.3019 69.016 35.8619 68.408C34.4219 67.768 32.8539 67.448 31.1579 67.448C29.5259 67.448 28.0379 67.704 26.6939 68.216C25.3499 68.728 24.1819 69.464 23.1899 70.424C22.2299 71.384 21.4779 72.52 20.9339 73.832C20.4219 75.144 20.1659 76.6 20.1659 78.2C20.1659 79.768 20.4219 81.208 20.9339 82.52C21.4779 83.832 22.2299 84.984 23.1899 85.976C24.1819 86.936 25.3339 87.672 26.6459 88.184C27.9899 88.696 29.4619 88.952 31.0619 88.952C32.5979 88.952 34.0859 88.712 35.5259 88.232C36.9979 87.72 38.4219 86.872 39.7979 85.688L44.2139 91.304C42.3899 92.68 40.2619 93.736 37.8299 94.472C35.4299 95.208 33.0299 95.576 30.6299 95.576ZM44.2139 91.304L37.1099 90.296V77.672H44.2139V91.304ZM63.1971 95.384C60.4451 95.384 57.9971 94.808 55.8531 93.656C53.7411 92.504 52.0611 90.936 50.8131 88.952C49.5971 86.936 48.9891 84.648 48.9891 82.088C48.9891 79.496 49.5971 77.208 50.8131 75.224C52.0611 73.208 53.7411 71.64 55.8531 70.52C57.9971 69.368 60.4451 68.792 63.1971 68.792C65.9171 68.792 68.3491 69.368 70.4931 70.52C72.6371 71.64 74.3171 73.192 75.5331 75.176C76.7491 77.16 77.3571 79.464 77.3571 82.088C77.3571 84.648 76.7491 86.936 75.5331 88.952C74.3171 90.936 72.6371 92.504 70.4931 93.656C68.3491 94.808 65.9171 95.384 63.1971 95.384ZM63.1971 89.24C64.4451 89.24 65.5651 88.952 66.5571 88.376C67.5491 87.8 68.3331 86.984 68.9091 85.928C69.4851 84.84 69.7731 83.56 69.7731 82.088C69.7731 80.584 69.4851 79.304 68.9091 78.248C68.3331 77.192 67.5491 76.376 66.5571 75.8C65.5651 75.224 64.4451 74.936 63.1971 74.936C61.9491 74.936 60.8291 75.224 59.8371 75.8C58.8451 76.376 58.0451 77.192 57.4371 78.248C56.8611 79.304 56.5731 80.584 56.5731 82.088C56.5731 83.56 56.8611 84.84 57.4371 85.928C58.0451 86.984 58.8451 87.8 59.8371 88.376C60.8291 88.952 61.9491 89.24 63.1971 89.24ZM82.3623 95V59.384H89.8503V95H82.3623ZM107.888 95.384C105.456 95.384 103.264 94.84 101.312 93.752C99.3598 92.632 97.8078 91.08 96.6558 89.096C95.5358 87.112 94.9758 84.776 94.9758 82.088C94.9758 79.368 95.5358 77.016 96.6558 75.032C97.8078 73.048 99.3598 71.512 101.312 70.424C103.264 69.336 105.456 68.792 107.888 68.792C110.064 68.792 111.968 69.272 113.6 70.232C115.232 71.192 116.496 72.648 117.392 74.6C118.288 76.552 118.736 79.048 118.736 82.088C118.736 85.096 118.304 87.592 117.44 89.576C116.576 91.528 115.328 92.984 113.696 93.944C112.096 94.904 110.16 95.384 107.888 95.384ZM109.184 89.24C110.4 89.24 111.504 88.952 112.496 88.376C113.488 87.8 114.272 86.984 114.848 85.928C115.456 84.84 115.76 83.56 115.76 82.088C115.76 80.584 115.456 79.304 114.848 78.248C114.272 77.192 113.488 76.376 112.496 75.8C111.504 75.224 110.4 74.936 109.184 74.936C107.936 74.936 106.816 75.224 105.824 75.8C104.832 76.376 104.032 77.192 103.424 78.248C102.848 79.304 102.56 80.584 102.56 82.088C102.56 83.56 102.848 84.84 103.424 85.928C104.032 86.984 104.832 87.8 105.824 88.376C106.816 88.952 107.936 89.24 109.184 89.24ZM115.952 95V89.72L116.096 82.04L115.616 74.408V59.384H123.104V95H115.952Z" fill="#FDFDFF"/>
</svg>
