<svg width="272" height="272" viewBox="0 0 272 272" fill="none" xmlns="http://www.w3.org/2000/svg">
<path fill-rule="evenodd" clip-rule="evenodd" d="M134.453 0.132342C208.287 3.13791 260.96 51.8646 270.505 115.71C270.685 116.621 259.52 112.158 243.222 119.536C249.075 119.353 271.135 120.628 271.225 121.63C271.855 127.733 272.125 134.017 271.945 140.392C270.054 216.078 214.95 272 134.363 272C53.7768 272 5.33496 217.353 0.382724 144.309C0.382724 143.307 16.5 139.937 19.5614 139.026C15.2394 139.299 2.81381 138.389 0.0225537 135.565C-0.42765 109.244 5.87521 84.2883 17.7606 63.1583C18.3909 61.9743 33.6977 57.056 39.7304 55.3256C24.6036 57.056 21.1821 57.4204 21.9024 56.3274C44.6827 20.9892 84.1205 -1.96245 134.363 0.132342H134.453Z" fill="url(#paint0_linear_88_3781)"/>
<path fill-rule="evenodd" clip-rule="evenodd" d="M134.543 1.68051C207.026 4.59501 258.529 52.2288 266.723 114.435C259.339 113.706 249.975 115.619 238 120.628C247.184 120.355 256.368 120.993 267.533 122.086C267.893 126.548 267.983 131.011 267.893 135.565C266.092 207.79 206.396 261.253 134.543 261.253C66.4725 261.253 12.7182 211.706 5.24482 144.764C13.7086 142.214 22.1725 139.573 30.6363 136.931C24.6036 138.024 9.47671 137.66 4.52448 134.928C4.52448 134.381 4.52448 133.835 4.52448 133.288C3.71411 108.242 9.38664 84.3793 20.4616 64.0689C27.4848 61.4277 38.6498 57.3291 49.995 53.2306C41.7112 54.0503 33.2474 55.2344 24.9637 56.3273C46.9336 21.9909 85.471 -0.414282 134.633 1.49835L134.543 1.68051Z" fill="url(#paint1_radial_88_3781)"/>
<path style="mix-blend-mode:multiply" opacity="0.6" fill-rule="evenodd" clip-rule="evenodd" d="M5.51486 110.246C15.8695 107.604 26.6744 104.234 38.2896 99.9537C56.838 93.1229 72.1449 88.2958 91.5036 84.8348C141.566 75.9092 178.933 59.7883 232.777 58.24C236.739 58.1489 240.791 58.1489 244.843 58.24C242.952 55.5077 240.881 52.8664 238.72 50.3162C225.754 49.4965 213.329 49.4055 201.893 50.4073C152.191 54.8702 94.2049 67.9854 41.1709 76.5467C31.8067 78.095 22.1723 79.8255 12.3579 81.6471C9.0264 90.7549 6.68537 100.409 5.4248 110.337L5.51486 110.246Z" fill="url(#paint2_radial_88_3781)"/>
<path style="mix-blend-mode:multiply" opacity="0.6" fill-rule="evenodd" clip-rule="evenodd" d="M85.9214 154.965C76.107 158.79 54.8574 166.349 37.7497 175.548C28.0253 180.74 21.6324 185.294 18.0308 189.392C22.6228 198.773 28.2953 207.517 34.8683 215.349C38.56 217.171 42.7919 219.084 47.294 221.087C59.9897 226.643 73.2257 232.108 85.2011 238.119C97.2665 244.13 108.792 252.145 120.317 260.524C124.909 260.979 129.681 261.253 134.453 261.253C142.017 261.253 149.49 260.706 156.693 259.522C148.68 253.511 140.216 246.953 130.672 240.032C114.914 228.647 93.845 213.346 86.8218 205.786C85.021 203.874 83.6704 201.597 82.77 199.229C81.8696 196.77 81.4193 194.219 81.5094 191.76C81.5994 189.392 82.2297 187.024 83.3102 184.838C84.4807 182.47 86.0114 180.284 87.8122 178.463C95.6458 170.448 111.133 161.887 128.511 153.963C153.632 142.487 182.895 132.377 198.922 127.641C214.679 122.996 226.295 121.084 237.91 120.628C249.885 115.528 259.16 113.615 266.633 114.435C266.003 109.426 265.012 104.508 263.842 99.7715C251.596 98.5875 239.531 98.3142 228.456 100.227C189.108 107.149 127.16 138.935 85.8313 154.965H85.9214Z" fill="url(#paint3_radial_88_3781)"/>
<g style="mix-blend-mode:multiply" opacity="0.5">
<path d="M259.429 178.555C258.349 178.555 257.268 178.555 256.188 178.555C252.946 178.646 249.795 179.101 246.734 179.739C244.663 180.194 242.592 180.923 240.701 181.925C238.9 182.927 237.099 184.111 235.389 185.295C233.588 186.661 231.877 188.118 230.346 189.758C228.906 191.306 227.645 192.945 226.565 194.767C225.574 196.497 224.584 198.41 223.863 200.414C223.143 202.508 222.693 204.694 222.783 206.88C222.783 208.975 223.323 211.161 224.133 213.165C224.944 215.077 226.114 216.808 227.555 218.083C228.906 219.267 230.346 220.269 231.877 221.179C233.138 219.813 234.488 218.447 235.659 217.081C233.408 216.079 231.247 214.895 229.356 213.256C227.555 211.707 226.565 208.793 226.565 206.425C226.565 203.419 227.915 200.323 229.356 197.864C234.668 189.029 243.402 185.568 252.946 185.204C254.117 185.204 255.288 185.204 256.548 185.204C257.539 183.018 258.439 180.832 259.339 178.555H259.429ZM267.263 145.312C266.543 145.312 265.822 145.312 265.102 145.312C233.408 145.494 202.344 154.51 174.161 173.91C163.716 181.105 158.584 187.663 157.684 194.038C156.783 200.323 157.864 206.607 163.986 213.711C174.611 226.189 185.416 237.573 197.031 246.772C193.88 248.321 190.728 249.778 187.487 251.144C175.962 241.581 165.067 230.014 154.352 217.445C146.879 208.611 143.007 200.414 144.177 192.035C146.338 176.916 177.673 160.613 194.51 153.782C224.043 141.942 245.833 137.479 267.803 138.207C267.713 140.667 267.533 143.035 267.263 145.403V145.312ZM267.803 126.549C224.944 123.726 193.069 131.286 133.192 158.518C117.255 165.804 104.47 175.094 97.5364 182.198C91.5937 188.209 90.6933 196.771 96.6359 203.146C102.939 209.977 120.947 224.549 135.624 235.205C147.059 243.494 155.973 251.235 164.617 258.157C162.005 258.704 159.394 259.25 156.783 259.614C148.769 253.603 140.306 247.046 130.761 240.124C115.004 228.739 93.9348 213.438 86.9116 205.878C85.1108 203.966 83.7601 201.689 82.8597 199.321C81.9593 196.862 81.5091 194.311 81.5992 191.852C81.6892 189.484 82.3195 187.116 83.4 184.93C84.5705 182.562 86.1012 180.377 87.9021 178.555C95.7356 170.54 111.223 161.979 128.6 154.055C153.722 142.579 182.985 132.47 199.012 127.733C227.195 119.445 242.322 119.719 267.533 122.269C267.623 123.726 267.713 125.183 267.803 126.732V126.549ZM263.931 99.7726C251.686 98.5885 239.62 98.3153 228.545 100.228C189.198 107.15 127.25 138.936 85.9212 154.966C76.1067 158.791 54.8571 166.351 37.7494 175.549C28.025 180.741 21.6321 185.295 18.0305 189.393C16.4998 186.206 15.0591 182.927 13.7085 179.557C32.7971 166.351 66.0221 153.964 80.6087 148.408C98.6168 141.486 116.445 134.109 134.363 126.823C162.816 115.347 197.932 98.7707 228.095 95.9473C239.17 94.9454 250.966 95.2187 262.941 96.2205C263.301 97.4045 263.571 98.4975 263.841 99.6815L263.931 99.7726ZM34.8681 215.442C38.6498 217.263 42.7917 219.176 47.3838 221.179C60.0795 226.735 73.3155 232.2 85.2909 238.211C97.3563 244.222 108.881 252.237 120.407 260.616C112.663 259.797 105.19 258.339 97.9866 256.336C91.3236 252.601 84.5705 248.958 77.4573 245.406C70.6142 241.945 63.411 238.758 56.0277 235.57C48.2842 229.741 41.1709 223.001 34.9581 215.533L34.8681 215.442ZM257.088 79.9176C242.682 79.4622 227.825 80.3729 212.428 83.2874C182.355 89.0254 159.754 99.2261 126.8 111.157C87.0016 125.639 46.6634 139.3 6.05509 151.414C5.69493 149.228 5.42482 147.042 5.1547 144.765C46.4833 132.378 87.5419 118.352 128.06 103.689C162.546 91.2112 186.857 82.8321 211.708 78.8246C225.574 76.6388 239.62 75.819 255.558 76.4566C256.098 77.5495 256.548 78.6425 257.088 79.8265V79.9176ZM5.42481 110.247C15.7795 107.605 26.5843 104.235 38.1996 99.9547C56.748 93.1239 72.0549 88.2967 91.4136 84.8358C141.476 75.9101 178.843 59.7893 232.687 58.241C236.649 58.1499 240.701 58.1499 244.753 58.241C245.923 59.8804 247.004 61.5198 248.084 63.2503C242.952 62.9771 237.82 62.886 232.777 63.0682C202.164 63.9789 172.9 72.0849 143.547 80.2819C126.259 85.109 109.782 89.6629 92.1339 92.8507C72.9553 96.3116 58.0086 101.048 39.6403 107.787C27.2147 112.341 15.5994 115.802 4.52441 118.352C4.7045 115.62 4.97458 112.979 5.33475 110.338L5.42481 110.247ZM16.0496 72.6313C23.8831 70.9919 31.9868 69.3525 40.5407 67.9864C93.6646 59.425 151.741 50.044 201.533 45.5812C212.158 44.6704 222.963 44.3972 233.858 44.7615C235.569 46.583 237.189 48.4046 238.72 50.3172C225.754 49.4975 213.329 49.4065 201.893 50.4083C152.191 54.8711 94.2049 67.9864 41.1709 76.5477C31.8067 78.096 22.1723 79.8265 12.3579 81.6481C13.4384 78.5514 14.699 75.6369 16.0496 72.6313ZM29.6458 49.4975C43.512 47.5849 57.2882 46.1276 70.6142 45.5812C87.6319 44.9436 104.74 43.7596 121.757 41.5738C133.733 40.0254 143.997 38.5682 153.362 37.202C177.402 33.7411 196.311 31.0087 218.461 30.8266C219.992 32.0106 221.612 33.2857 223.053 34.5608C172.54 34.5608 129.231 51.1369 70.7943 51.9566C56.4779 52.1388 40.0904 54.3247 24.6034 56.5105C26.1341 54.1425 27.7549 51.7745 29.4656 49.4975H29.6458ZM44.2323 33.2857C78.8079 33.3767 108.521 30.7355 143.817 25.9994C162.906 23.4493 182.085 20.8991 201.353 19.624C204.325 21.2634 207.296 22.9939 210.087 24.8154C188.117 25.6351 166.147 27.821 144.357 30.6444C106.18 35.7448 74.8461 41.2094 36.6689 40.7541C39.01 38.1128 41.5311 35.5626 44.1423 33.1946L44.2323 33.2857ZM68.2732 16.163C87.3618 15.0701 106.901 13.0663 127.25 9.9697C138.685 8.23922 150.12 6.50875 161.645 5.14258C166.147 6.05336 170.649 7.23738 174.881 8.60355C139.675 12.3377 104.65 18.9864 69.4437 21.992C65.3919 22.3563 61.34 22.6296 57.1982 22.9028C60.7098 20.4437 64.4014 18.2578 68.1831 16.2541L68.2732 16.163ZM214.679 236.025C207.926 231.836 202.344 227.008 198.112 222.09C191.629 214.531 188.567 206.698 190.008 200.14C190.188 199.321 190.458 198.501 190.728 197.772C193.52 191.033 200.453 183.655 209.277 177.371C217.921 171.178 228.365 166.077 238.54 163.436C246.914 161.25 255.738 160.613 264.742 160.886C264.472 162.07 264.202 163.163 263.931 164.256C263.751 164.256 263.481 164.256 263.301 164.256C255.017 163.891 246.914 164.529 239.35 166.624C230.346 169.083 220.442 175.458 212.788 181.378C198.652 192.217 190.008 202.417 203.244 218.903C207.116 223.821 212.518 228.648 219.001 232.837C217.561 233.93 216.12 235.023 214.679 236.025Z" fill="#B7805C"/>
</g>
<path style="mix-blend-mode:screen" fill-rule="evenodd" clip-rule="evenodd" d="M89.163 13.4304C88.5327 13.0661 88.2626 11.9731 88.6227 11.2445C89.7032 8.78537 96.6364 6.05306 103.66 3.86719C90.8738 6.23521 78.9884 10.4248 68.3636 16.1627C76.2872 15.7073 84.2108 15.0698 92.3144 14.3411C91.234 14.2501 90.0634 14.0679 89.163 13.5214V13.4304ZM82.6801 20.6255C78.3581 21.0809 73.9461 21.5363 69.6242 21.9006C65.5723 22.2649 61.5205 22.5381 57.3786 22.8114C52.7866 25.9991 48.3746 29.4601 44.3228 33.1943C56.5683 33.1943 68.1835 32.921 79.6187 32.2835C76.9175 32.0103 74.3063 31.737 71.6051 31.4638C58.9093 29.8244 72.5955 23.4489 77.1876 21.9917C78.9884 21.4452 80.7892 20.9898 82.59 20.5344L82.6801 20.6255ZM73.586 39.5697C61.7907 40.4805 49.6352 41.027 36.8494 40.8448C34.3282 43.5772 31.9872 46.4917 29.7362 49.4972C43.6024 47.5846 57.3787 46.1273 70.7047 45.5809C71.9652 45.5809 73.2258 45.4898 74.4864 45.3987C72.6856 45.2166 70.8848 44.9433 69.174 44.6701C65.4823 43.9415 67.9134 41.027 70.5246 40.2984C71.5151 40.0251 72.5055 39.7519 73.586 39.4787V39.5697ZM49.9053 53.4136C38.5602 57.421 27.3051 61.5195 20.372 64.2519C18.8413 66.9842 17.4906 69.8076 16.2301 72.631C24.0636 70.9916 32.1673 69.3522 40.7211 67.9861C41.7116 67.8039 42.612 67.7128 43.6024 67.5307C39.1004 66.2556 34.2382 63.9786 38.8303 60.5176C47.114 54.3243 59.5397 53.0493 70.1645 52.0474C63.7716 52.1385 56.9284 52.685 49.9953 53.4136H49.9053ZM39.3705 76.8206C30.6366 78.2779 21.7226 79.9173 12.5384 81.6478C9.20694 90.7556 6.86584 100.41 5.60527 110.337C15.9599 107.696 26.7649 104.326 38.3801 100.045C39.9108 99.499 41.4415 98.9526 42.9721 98.4061C33.9681 100.228 23.1632 101.776 20.6421 99.2258C15.87 94.2165 21.5425 83.1961 27.4851 80.8281C31.3569 79.2797 35.3187 78.0957 39.3705 77.0028V76.8206ZM32.9776 110.155C23.0732 113.525 13.7089 116.166 4.70488 118.261C4.34472 123.27 4.25469 128.28 4.43477 133.38C4.43477 133.926 4.43477 134.473 4.43477 135.019C9.387 137.752 24.5138 138.116 30.5466 137.023C33.698 136.021 36.7594 135.019 39.9108 134.018C29.196 135.202 12.0883 136.295 10.3775 130.01C8.57667 123.635 20.9122 116.166 32.9776 110.155ZM33.8781 142.943C24.6939 145.858 15.4197 148.681 6.14556 151.505C7.67625 161.341 10.2874 170.813 13.799 179.739C21.1823 174.638 30.5466 169.72 40.1809 165.257C35.5888 166.623 31.1769 167.443 27.035 167.17C20.0118 166.623 16.5002 157.789 21.3624 151.322C23.7034 148.226 28.4756 145.493 33.788 143.034L33.8781 142.943ZM37.8398 175.64C28.1154 180.832 21.7226 185.386 18.121 189.484C22.7131 198.865 28.3856 207.609 34.9585 215.441C38.6502 217.263 42.8822 219.175 47.3842 221.179C54.7675 224.458 62.3309 227.646 69.7142 230.925C60.7102 225.824 49.185 219.267 45.1332 215.259C38.11 208.428 28.5657 192.307 33.788 182.38C35.5888 178.919 38.4701 176.369 41.3514 173.728C40.1809 174.365 38.9204 175.003 37.7498 175.64H37.8398Z" fill="url(#paint4_radial_88_3781)"/>
<path style="mix-blend-mode:screen" fill-rule="evenodd" clip-rule="evenodd" d="M15.7798 191.487C42.792 242.491 77.3676 259.067 136.614 264.896C84.0306 275.826 33.4277 243.766 15.7798 191.487Z" fill="url(#paint5_radial_88_3781)"/>
<g style="mix-blend-mode:screen" opacity="0.65">
<path fill-rule="evenodd" clip-rule="evenodd" d="M28.2952 56.055C50.7153 24.6331 87.8121 4.50484 134.543 6.3264C144.448 6.69071 153.722 7.87472 162.816 9.87843C167.138 12.1554 172.36 14.9788 173.891 15.4342C178.663 16.8914 187.397 17.3468 193.52 20.1702C217.741 31.3728 236.829 48.6776 249.795 70.081C250.155 70.7185 250.605 71.9025 250.335 72.5401C249.975 73.2687 249.075 73.3598 248.264 73.4508C247.364 73.633 246.193 73.633 244.933 73.5419C239.801 73.2687 234.668 72.2668 229.536 72.5401C221.522 72.8133 213.419 73.3598 205.675 75.2724C185.146 80.2817 155.973 92.2129 132.832 102.049C164.887 90.4824 188.117 82.6497 211.888 78.9155C225.124 76.8207 238.36 76.001 253.397 76.4564C259.61 88.2055 263.931 100.956 266.182 114.436C266.453 114.436 266.633 114.436 266.903 114.436C258.709 52.2297 207.206 4.5959 134.723 1.6814C85.561 -0.322314 47.0236 22.1739 25.0537 56.5103C26.2242 56.3282 27.3047 56.2371 28.4752 56.055H28.2952Z" fill="#CA9E67"/>
</g>
<g style="mix-blend-mode:screen" opacity="0.5">
<path fill-rule="evenodd" clip-rule="evenodd" d="M154.262 116.075C126.259 128.19 97.8064 139.94 69.9839 152.602C74.1258 150.962 77.8174 149.596 80.6987 148.503C98.7069 141.58 116.535 134.202 134.453 126.915C151.02 120.265 169.839 111.794 188.567 105.418C176.682 107.422 169.209 109.699 154.262 116.075Z" fill="#CA9E67"/>
</g>
<g style="mix-blend-mode:screen" opacity="0.5">
<path fill-rule="evenodd" clip-rule="evenodd" d="M128.691 153.963C153.812 142.487 183.075 132.377 199.103 127.641C204.775 126.002 209.997 124.636 214.77 123.634C190.008 127.55 171.28 132.924 144.628 144.308C131.662 149.864 118.786 155.693 106.541 162.706C94.0252 169.901 86.1917 176.55 83.4004 185.202C83.4004 185.202 83.4003 185.02 83.4904 184.929C84.6609 182.561 86.1916 180.375 87.9924 178.554C95.8259 170.539 111.313 161.978 128.691 154.054V153.963Z" fill="#CA9E67"/>
</g>
<g style="mix-blend-mode:screen" opacity="0.5">
<path fill-rule="evenodd" clip-rule="evenodd" d="M100.238 80.8298C85.561 83.8357 76.737 86.5683 64.5815 91.1227C73.1354 88.6634 81.8693 86.5683 91.5037 84.8377C131.752 77.6417 163.716 65.8913 202.704 60.6992C183.345 61.7012 171.1 63.1586 148.68 69.3526C141.926 71.2655 135.444 73.9981 128.69 75.5466C119.326 77.7328 109.692 78.9169 100.238 80.8298Z" fill="#CA9E67"/>
</g>
<g style="mix-blend-mode:screen" opacity="0.65">
<path fill-rule="evenodd" clip-rule="evenodd" d="M230.977 191.578C211.078 223.273 176.412 244.129 136.254 244.129C96.096 244.129 60.1698 222.908 40.3608 190.758C58.9993 225.641 90.2434 246.406 136.524 247.499C176.592 248.41 210.087 228.1 230.977 191.578Z" fill="#CA9E67"/>
</g>
<g style="mix-blend-mode:screen" opacity="0.65">
<path fill-rule="evenodd" clip-rule="evenodd" d="M63.501 64.2508C67.823 63.5221 72.235 62.8846 76.557 62.1559C72.235 61.7005 70.6143 61.2452 72.7753 58.4217C74.4861 56.0537 76.647 53.8678 79.1682 51.7731C82.2295 49.2229 85.7411 46.8549 89.6128 44.669C96.1858 40.9348 103.569 37.8381 110.682 35.379C113.384 34.4683 116.085 33.6485 118.696 32.9199C114.644 33.6485 110.682 34.6504 106.811 35.9255C99.8775 38.2025 93.3045 41.208 87.0917 44.8511C83.4901 46.9459 80.0685 49.314 76.8271 51.8642C72.0549 55.5984 67.6429 59.6969 63.5911 64.2508H63.501ZM48.8244 87.0203C53.9568 78.0946 55.4875 75.5444 62.1505 72.9942C60.0796 73.3585 58.0086 73.7229 55.8476 74.0872C52.0659 79.6429 48.7344 85.563 46.0332 91.8474C46.9336 90.208 47.834 88.6597 48.8244 87.0203Z" fill="#CA9E67"/>
</g>
<path opacity="0.75" fill-rule="evenodd" clip-rule="evenodd" d="M37.9299 131.467C37.9299 76.638 81.8698 31.2812 136.074 31.2812C190.279 31.2812 234.219 76.638 234.219 131.467C234.219 186.296 192.98 229.831 136.074 230.742C79.1685 231.653 37.9299 186.296 37.9299 131.467ZM247.995 116.986C241.872 61.428 193.34 19.5322 136.074 17.6195C73.9462 15.5247 23.5234 68.6232 23.5234 131.467C23.5234 133.471 23.5234 135.565 23.7035 137.569C26.4047 137.569 28.8358 137.296 30.5466 137.023C28.2956 137.751 26.0446 138.48 23.7935 139.117C27.6653 198.318 76.4673 244.13 136.074 244.13C195.681 244.13 247.274 194.037 248.625 131.467C248.625 127.824 248.625 124.272 248.355 120.72C244.843 120.629 241.422 120.538 238 120.72C241.512 119.262 244.843 117.987 247.995 117.077V116.986Z" fill="url(#paint6_linear_88_3781)"/>
<g style="mix-blend-mode:multiply" opacity="0.5">
<path fill-rule="evenodd" clip-rule="evenodd" d="M23.6133 134.564C25.234 73.086 75.0265 21.8091 136.164 23.8128C191.449 25.6344 238.45 64.6158 247.274 117.259C247.544 117.259 247.814 117.077 248.085 116.986C241.962 61.428 193.43 19.5322 136.164 17.6195C74.036 15.5247 23.6133 68.6232 23.6133 131.467C23.6133 132.469 23.6133 133.562 23.6133 134.564Z" fill="#683C11"/>
</g>
<g style="mix-blend-mode:multiply" opacity="0.5">
<path fill-rule="evenodd" clip-rule="evenodd" d="M234.218 134.563C232.688 187.935 191.989 229.831 136.074 230.742C80.2488 231.653 39.4604 188.026 37.9297 134.563C37.9297 135.565 37.9297 136.567 37.9297 137.569C37.9297 192.398 79.1683 237.755 136.074 236.844C192.98 235.933 234.218 192.398 234.218 137.569C234.218 136.567 234.218 135.565 234.218 134.563Z" fill="#683C11"/>
</g>
<path style="mix-blend-mode:screen" opacity="0.5" fill-rule="evenodd" clip-rule="evenodd" d="M136.164 31.2812C81.9593 31.2812 38.0195 76.6381 38.0195 131.467C38.0195 186.296 79.2581 231.653 136.164 230.742C193.069 229.831 234.308 186.296 234.308 131.467C234.308 76.6381 190.368 31.2812 136.164 31.2812Z" fill="url(#paint7_linear_88_3781)"/>
<defs>
<linearGradient id="paint0_linear_88_3781" x1="136.164" y1="-309.897" x2="136.164" y2="-309.897" gradientUnits="userSpaceOnUse">
<stop stop-color="#692705"/>
<stop offset="1" stop-color="#823B00"/>
</linearGradient>
<radialGradient id="paint1_radial_88_3781" cx="0" cy="0" r="1" gradientUnits="userSpaceOnUse" gradientTransform="translate(56.748 -305.343) scale(280.116 283.344)">
<stop stop-color="#F59547"/>
<stop offset="1" stop-color="#A14C1F"/>
</radialGradient>
<radialGradient id="paint2_radial_88_3781" cx="0" cy="0" r="1" gradientUnits="userSpaceOnUse" gradientTransform="translate(73.4055 -305.343) scale(285.519 288.808)">
<stop stop-color="#CFA04D"/>
<stop offset="1" stop-color="white"/>
</radialGradient>
<radialGradient id="paint3_radial_88_3781" cx="0" cy="0" r="1" gradientUnits="userSpaceOnUse" gradientTransform="translate(118.156 268.175) scale(351.699 355.75)">
<stop stop-color="#CFA04D"/>
<stop offset="1" stop-color="white"/>
</radialGradient>
<radialGradient id="paint4_radial_88_3781" cx="0" cy="0" r="1" gradientUnits="userSpaceOnUse" gradientTransform="translate(203.605 -305.342) scale(243.74 246.548)">
<stop offset="0.35"/>
<stop offset="1" stop-color="#CA9E67"/>
</radialGradient>
<radialGradient id="paint5_radial_88_3781" cx="0" cy="0" r="1" gradientUnits="userSpaceOnUse" gradientTransform="translate(53.5968 -305.343) scale(4.50203 4.5539)">
<stop stop-color="#B0670B"/>
<stop offset="1"/>
</radialGradient>
<linearGradient id="paint6_linear_88_3781" x1="136.164" y1="244.13" x2="136.164" y2="17.5284" gradientUnits="userSpaceOnUse">
<stop stop-color="#823B00"/>
<stop offset="1" stop-color="#692705"/>
</linearGradient>
<linearGradient id="paint7_linear_88_3781" x1="136.164" y1="230.742" x2="136.164" y2="31.2812" gradientUnits="userSpaceOnUse">
<stop stop-color="#FFB01C"/>
<stop offset="0.57"/>
</linearGradient>
</defs>
</svg>
